<!-- Created with Inkscape (http://www.inkscape.org/) --><svg xmlns:inkscape="http://www.inkscape.org/namespaces/inkscape" xmlns:sodipodi="http://sodipodi.sourceforge.net/DTD/sodipodi-0.dtd" xmlns="http://www.w3.org/2000/svg" xmlns:svg="http://www.w3.org/2000/svg" width="210mm" height="297mm" viewBox="0 0 793.70081 1122.5197" version="1.1" id="svg101" inkscape:version="1.1.2 (1:1.1+202202050950+0a00cf5339)" sodipodi:docname="lixo.svg">
  <sodipodi:namedview id="namedview103" pagecolor="#ffffff" bordercolor="#111111" borderopacity="1" inkscape:pageshadow="0" inkscape:pageopacity="0" inkscape:pagecheckerboard="false" inkscape:document-units="px" showgrid="true" inkscape:zoom="1.048534" inkscape:cx="702.88612" inkscape:cy="561.25982" inkscape:window-width="2560" inkscape:window-height="1416" inkscape:window-x="1920" inkscape:window-y="0" inkscape:window-maximized="1" inkscape:current-layer="layer1">
    <inkscape:grid type="xygrid" id="grid105"/>
  </sodipodi:namedview>
  <defs id="defs98"/>
  <g inkscape:label="Layer 1" inkscape:groupmode="layer" id="layer1"/>
<g inkscape:label="importedSVG_X" transform="translate(590.500000 481.500000)" WavedromString="{ &quot;assign&quot;:[ [&quot;z&quot;, [&quot;~&amp;&quot;, [&quot;~^&quot;, [&quot;~&quot;, &quot;p0&quot;], [&quot;~&quot;, &quot;q0&quot;]], [&quot;~^&quot;, [&quot;~&quot;, &quot;p1&quot;], [&quot;~&quot;, &quot;q1&quot;]], [&quot;~^&quot;, [&quot;~&quot;, &quot;p2&quot;], [&quot;~&quot;, &quot;q2&quot;]], &quot;...&quot;, [&quot;~^&quot;, [&quot;~&quot;, &quot;p7&quot;], [&quot;~&quot;, &quot;q7&quot;]], [&quot;~&quot;,&quot;~en&quot;] ]] ]}"><defs><style type="text/css">.pinname {font-size:12px; font-style:normal; font-variant:normal; font-weight:500; font-stretch:normal; text-align:center; text-anchor:end; font-family:Helvetica} .wirename {font-size:12px; font-style:normal; font-variant:normal; font-weight:500; font-stretch:normal; text-align:center; text-anchor:start; font-family:Helvetica} .wirename:hover {fill:blue} .gate {color:#000; fill:#ffc; fill-opacity: 1;stroke:#000; stroke-width:1; stroke-opacity:1} .gate:hover {fill:red !important; } .wire {fill:none; stroke:#000; stroke-width:1; stroke-opacity:1} .grid {fill:#fff; fill-opacity:1; stroke:none}</style></defs><g transform="translate(0.5,0.5)"><g/><g><g><g transform="translate(16,0)"><path class="wire" d="M 160,88 160,88"/></g><path class="wire" d="m 160,88 16,0"/><g transform="translate(192,88)"><text><tspan class="wirename" x="-14" y="4">z</tspan></text></g></g><g><g><g transform="translate(16,0)"><path class="wire" d="M 128,24 128,160"/></g><path class="wire" d="m 128,24 16,0"/><path class="wire" d="m 128,56 16,0"/><path class="wire" d="m 128,88 16,0"/><path class="wire" d="m 128,112 16,0"/><path class="wire" d="m 128,136 16,0"/><path class="wire" d="m 128,160 16,0"/><g transform="translate(160,88)"><path class="gate" d="m -16,-10 5,0 c 6,0 11,4 11,10 0,6 -5,10 -11,10 l -5,0 z M 4,0 C 4,1.1 3.1,2 2,2 0.9,2 0,1.1 0,0 c 0,-1.1 0.9,-2 2,-2 1.1,0 2,0.9 2,2 z"/></g></g><g><g><g transform="translate(16,0)"><path class="wire" d="M 96,16 96,32"/></g><path class="wire" d="m 96,16 16,0"/><path class="wire" d="m 96,32 16,0"/><g transform="translate(128,24)"><path class="gate" d="m -21,-10 c 1,3 2,6 2,10 m 0,0 c 0,4 -1,7 -2,10 m 3,-20 4,0 c 6,0 12,5 14,10 -2,5 -8,10 -14,10 l -4,0 c 1,-3 2,-6 2,-10 0,-4 -1,-7 -2,-10 z M 4,0 C 4,1.1 3.1,2 2,2 0.9,2 0,1.1 0,0 c 0,-1.1 0.9,-2 2,-2 1.1,0 2,0.9 2,2 z"/></g></g><g><g><g transform="translate(16,0)"><path class="wire" d="M 64,16 64,16"/></g><path class="wire" d="m 64,16 16,0"/><g transform="translate(96,16)"><path class="gate" d="M -11,-6 -11,6 0,0 z m -5,6 5,0 M 4,0 C 4,1.1 3.1,2 2,2 0.9,2 0,1.1 0,0 c 0,-1.1 0.9,-2 2,-2 1.1,0 2,0.9 2,2 z"/></g></g><g><g transform="translate(64,16)"><path d="M 2,0 a 2,2 0 1 1 -4,0 2,2 0 1 1 4,0 z"/><text><tspan class="pinname" x="-4" y="4">p0</tspan></text></g></g></g><g><g><g transform="translate(16,0)"><path class="wire" d="M 64,32 64,32"/></g><path class="wire" d="m 64,32 16,0"/><g transform="translate(96,32)"><path class="gate" d="M -11,-6 -11,6 0,0 z m -5,6 5,0 M 4,0 C 4,1.1 3.1,2 2,2 0.9,2 0,1.1 0,0 c 0,-1.1 0.9,-2 2,-2 1.1,0 2,0.9 2,2 z"/></g></g><g><g transform="translate(64,32)"><path d="M 2,0 a 2,2 0 1 1 -4,0 2,2 0 1 1 4,0 z"/><text><tspan class="pinname" x="-4" y="4">q0</tspan></text></g></g></g></g><g><g><g transform="translate(16,0)"><path class="wire" d="M 96,48 96,64"/></g><path class="wire" d="m 96,48 16,0"/><path class="wire" d="m 96,64 16,0"/><g transform="translate(128,56)"><path class="gate" d="m -21,-10 c 1,3 2,6 2,10 m 0,0 c 0,4 -1,7 -2,10 m 3,-20 4,0 c 6,0 12,5 14,10 -2,5 -8,10 -14,10 l -4,0 c 1,-3 2,-6 2,-10 0,-4 -1,-7 -2,-10 z M 4,0 C 4,1.1 3.1,2 2,2 0.9,2 0,1.1 0,0 c 0,-1.1 0.9,-2 2,-2 1.1,0 2,0.9 2,2 z"/></g></g><g><g><g transform="translate(16,0)"><path class="wire" d="M 64,48 64,48"/></g><path class="wire" d="m 64,48 16,0"/><g transform="translate(96,48)"><path class="gate" d="M -11,-6 -11,6 0,0 z m -5,6 5,0 M 4,0 C 4,1.1 3.1,2 2,2 0.9,2 0,1.1 0,0 c 0,-1.1 0.9,-2 2,-2 1.1,0 2,0.9 2,2 z"/></g></g><g><g transform="translate(64,48)"><path d="M 2,0 a 2,2 0 1 1 -4,0 2,2 0 1 1 4,0 z"/><text><tspan class="pinname" x="-4" y="4">p1</tspan></text></g></g></g><g><g><g transform="translate(16,0)"><path class="wire" d="M 64,64 64,64"/></g><path class="wire" d="m 64,64 16,0"/><g transform="translate(96,64)"><path class="gate" d="M -11,-6 -11,6 0,0 z m -5,6 5,0 M 4,0 C 4,1.1 3.1,2 2,2 0.9,2 0,1.1 0,0 c 0,-1.1 0.9,-2 2,-2 1.1,0 2,0.9 2,2 z"/></g></g><g><g transform="translate(64,64)"><path d="M 2,0 a 2,2 0 1 1 -4,0 2,2 0 1 1 4,0 z"/><text><tspan class="pinname" x="-4" y="4">q1</tspan></text></g></g></g></g><g><g><g transform="translate(16,0)"><path class="wire" d="M 96,80 96,96"/></g><path class="wire" d="m 96,80 16,0"/><path class="wire" d="m 96,96 16,0"/><g transform="translate(128,88)"><path class="gate" d="m -21,-10 c 1,3 2,6 2,10 m 0,0 c 0,4 -1,7 -2,10 m 3,-20 4,0 c 6,0 12,5 14,10 -2,5 -8,10 -14,10 l -4,0 c 1,-3 2,-6 2,-10 0,-4 -1,-7 -2,-10 z M 4,0 C 4,1.1 3.1,2 2,2 0.9,2 0,1.1 0,0 c 0,-1.1 0.9,-2 2,-2 1.1,0 2,0.9 2,2 z"/></g></g><g><g><g transform="translate(16,0)"><path class="wire" d="M 64,80 64,80"/></g><path class="wire" d="m 64,80 16,0"/><g transform="translate(96,80)"><path class="gate" d="M -11,-6 -11,6 0,0 z m -5,6 5,0 M 4,0 C 4,1.1 3.1,2 2,2 0.9,2 0,1.1 0,0 c 0,-1.1 0.9,-2 2,-2 1.1,0 2,0.9 2,2 z"/></g></g><g><g transform="translate(64,80)"><path d="M 2,0 a 2,2 0 1 1 -4,0 2,2 0 1 1 4,0 z"/><text><tspan class="pinname" x="-4" y="4">p2</tspan></text></g></g></g><g><g><g transform="translate(16,0)"><path class="wire" d="M 64,96 64,96"/></g><path class="wire" d="m 64,96 16,0"/><g transform="translate(96,96)"><path class="gate" d="M -11,-6 -11,6 0,0 z m -5,6 5,0 M 4,0 C 4,1.1 3.1,2 2,2 0.9,2 0,1.1 0,0 c 0,-1.1 0.9,-2 2,-2 1.1,0 2,0.9 2,2 z"/></g></g><g><g transform="translate(64,96)"><path d="M 2,0 a 2,2 0 1 1 -4,0 2,2 0 1 1 4,0 z"/><text><tspan class="pinname" x="-4" y="4">q2</tspan></text></g></g></g></g><g><g transform="translate(128,112)"><path d="M 2,0 a 2,2 0 1 1 -4,0 2,2 0 1 1 4,0 z"/><text><tspan class="pinname" x="-4" y="4">...</tspan></text></g></g><g><g><g transform="translate(16,0)"><path class="wire" d="M 96,128 96,144"/></g><path class="wire" d="m 96,128 16,0"/><path class="wire" d="m 96,144 16,0"/><g transform="translate(128,136)"><path class="gate" d="m -21,-10 c 1,3 2,6 2,10 m 0,0 c 0,4 -1,7 -2,10 m 3,-20 4,0 c 6,0 12,5 14,10 -2,5 -8,10 -14,10 l -4,0 c 1,-3 2,-6 2,-10 0,-4 -1,-7 -2,-10 z M 4,0 C 4,1.1 3.1,2 2,2 0.9,2 0,1.1 0,0 c 0,-1.1 0.9,-2 2,-2 1.1,0 2,0.9 2,2 z"/></g></g><g><g><g transform="translate(16,0)"><path class="wire" d="M 64,128 64,128"/></g><path class="wire" d="m 64,128 16,0"/><g transform="translate(96,128)"><path class="gate" d="M -11,-6 -11,6 0,0 z m -5,6 5,0 M 4,0 C 4,1.1 3.1,2 2,2 0.9,2 0,1.1 0,0 c 0,-1.1 0.9,-2 2,-2 1.1,0 2,0.9 2,2 z"/></g></g><g><g transform="translate(64,128)"><path d="M 2,0 a 2,2 0 1 1 -4,0 2,2 0 1 1 4,0 z"/><text><tspan class="pinname" x="-4" y="4">p7</tspan></text></g></g></g><g><g><g transform="translate(16,0)"><path class="wire" d="M 64,144 64,144"/></g><path class="wire" d="m 64,144 16,0"/><g transform="translate(96,144)"><path class="gate" d="M -11,-6 -11,6 0,0 z m -5,6 5,0 M 4,0 C 4,1.1 3.1,2 2,2 0.9,2 0,1.1 0,0 c 0,-1.1 0.9,-2 2,-2 1.1,0 2,0.9 2,2 z"/></g></g><g><g transform="translate(64,144)"><path d="M 2,0 a 2,2 0 1 1 -4,0 2,2 0 1 1 4,0 z"/><text><tspan class="pinname" x="-4" y="4">q7</tspan></text></g></g></g></g><g><g><g transform="translate(16,0)"><path class="wire" d="M 96,160 96,160"/></g><path class="wire" d="m 96,160 16,0"/><g transform="translate(128,160)"><path class="gate" d="M -11,-6 -11,6 0,0 z m -5,6 5,0 M 4,0 C 4,1.1 3.1,2 2,2 0.9,2 0,1.1 0,0 c 0,-1.1 0.9,-2 2,-2 1.1,0 2,0.9 2,2 z"/></g></g><g><g transform="translate(96,160)"><path d="M 2,0 a 2,2 0 1 1 -4,0 2,2 0 1 1 4,0 z"/><text><tspan class="pinname" x="-4" y="4">~en</tspan></text></g></g></g></g></g></g></g></svg>